<?xml version="1.0" standalone="no"?>
<!DOCTYPE svg PUBLIC "-//W3C//DTD SVG 20010904//EN"
 "http://www.w3.org/TR/2001/REC-SVG-20010904/DTD/svg10.dtd">
<svg version="1.0" xmlns="http://www.w3.org/2000/svg"
 width="500.000000pt" height="500.000000pt" viewBox="0 0 500.000000 500.000000"
 preserveAspectRatio="xMidYMid meet">
<metadata>
Created by potrace 1.14, written by Peter Selinger 2001-2017
</metadata>
<g transform="translate(0.000000,500.000000) scale(0.100000,-0.100000)"
fill="#000000" stroke="none">
<path d="M2310 4994 c-263 -30 -494 -81 -675 -149 -441 -164 -854 -471 -1129
-840 -117 -157 -168 -240 -251 -410 -186 -381 -266 -751 -252 -1165 10 -278
45 -473 129 -725 293 -883 1057 -1526 1988 -1676 205 -33 551 -33 750 -1 502
82 925 283 1307 621 363 321 650 810 757 1287 49 215 60 325 60 554 -1 229
-15 365 -59 560 -150 666 -571 1247 -1160 1598 -277 164 -572 270 -903 323
-121 19 -471 34 -562 23z m491 -58 c732 -91 1395 -517 1789 -1151 75 -120 186
-359 233 -502 267 -802 116 -1660 -407 -2313 -325 -406 -797 -715 -1284 -841
-216 -56 -329 -71 -565 -76 -285 -7 -439 9 -685 72 -325 82 -669 257 -939 477
-354 288 -641 710 -782 1151 -66 208 -96 372 -111 623 -19 320 26 636 134 945
44 124 165 374 232 479 402 628 1044 1040 1769 1135 138 18 474 18 616 1z"/>
<path d="M1630 3761 c0 -6 -52 -451 -115 -991 -121 -1036 -119 -1023 -177
-1077 -32 -31 -86 -51 -153 -59 -34 -4 -54 -11 -52 -18 3 -8 93 -12 295 -14
255 -2 292 0 292 13 0 11 -11 15 -41 15 -35 0 -48 6 -80 39 -30 30 -39 46 -39
72 0 51 127 1480 132 1484 2 3 177 -371 389 -830 295 -642 388 -835 401 -835
11 0 18 8 18 19 0 11 12 57 26 103 30 96 708 1610 711 1588 1 -8 32 -358 69
-778 66 -741 67 -765 50 -796 -22 -41 -64 -66 -110 -66 -25 0 -36 -4 -36 -15
0 -13 40 -15 327 -13 228 2 327 6 330 14 2 7 -18 14 -52 18 -67 8 -121 28
-153 59 -58 54 -56 43 -177 1055 -63 526 -117 972 -120 990 -3 17 -11 32 -18
32 -7 0 -196 -408 -421 -906 -225 -498 -413 -907 -416 -909 -4 -3 -196 404
-427 903 -287 621 -425 908 -436 910 -9 2 -17 -1 -17 -7z"/>
</g>
</svg>
